# AST/ASF file generated using VICON BodyLanguage
# -----------------------------------------------
:version 1.10
:name VICON
:units
  mass 1.0
  length 0.45
  angle deg
:documentation
   .ast/.asf automatically generated from VICON data using
   VICON BodyBuilder and BodyLanguage model FoxedUp or BRILLIANT.MOD
:root
   order TX TY TZ RX RY RZ
   axis XYZ
   position 0 0 0  
   orientation 0 0 0 
:bonedata
  begin
     id 1 
     name lhipjoint
     direction 0.57768 -0.667037 0.470475 
     length 2.36008 
     axis 0 0 0  XYZ
  end
  begin
     id 2 
     name lfemur
     direction 0.34202 -0.939693 0  
     length 6.97235  
     axis 0 0 20  XYZ
    dof rx ry rz
    limits (-160.0 20.0)
           (-70.0 70.0)
           (-60.0 70.0)
  end
  begin
     id 3 
     name ltibia
     direction 0.34202 -0.939693 0   
     length 6.93428   
     axis 0 0 20   XYZ
    dof rx
    limits (-10.0 170.0)
  end
  begin
     id 4 
     name lfoot
     direction 0.133018 -0.365463 0.921272   
     length 2.18603   
     axis -90 7.62852e-016 20   XYZ
    dof rx rz
    limits (-45.0 90.0)
           (-70.0 20.0)
  end
  begin
     id 5 
     name ltoes
     direction 1.53519e-011 -4.22055e-011 1   
     length 1.07924   
     axis -90 7.62852e-016 20   XYZ
    dof rx
    limits (-90.0 20.0)
  end
  begin
     id 6 
     name rhipjoint
     direction -0.577712 -0.667019 0.470462   
     length 2.36015  
     axis 0 0 0  XYZ 
  end
  begin
     id 7 
     name rfemur
     direction -0.34202 -0.939693 0   
     length 6.71195   
     axis 0 0 -20   XYZ
    dof rx ry rz
    limits (-160.0 20.0)
           (-70.0 70.0)
           (-70.0 60.0)
  end
  begin
     id 8 
     name rtibia
     direction -0.34202 -0.939693 0   
     length 7.04592   
     axis 0 0 -20   XYZ
    dof rx
    limits (-10.0 170.0)
 end
 begin
     id 9 
     name rfoot
     direction -0.113796 -0.312651 0.943027   
     length 2.03846  
     axis -90 -7.62852e-016 -20   XYZ
    dof rx rz
    limits (-45.0 90.0)
           (-20.0 70.0)
  end
  begin
     id 10 
     name rtoes
     direction -1.53586e-011 -4.218e-011 1   
     length 1.01562   
     axis -90 -7.62852e-016 -20   XYZ
    dof rx
    limits (-90.0 20.0)
  end
  begin
     id 11 
     name lowerback
     direction -0.0417299 0.991937 -0.119667   
     length 2.05257   
     axis 0 0 0   XYZ
    dof rx ry rz
    limits (-20.0 45.0)
           (-30.0 30.0)
           (-30.0 30.0)
  end
  begin
     id 12 
     name upperback
     direction -0.00017666 0.999999 0.00105178   
     length 2.05693   
     axis 0 0 0   XYZ
    dof rx ry rz
    limits (-20.0 45.0)
           (-30.0 30.0)
           (-30.0 30.0)
  end
  begin
     id 13 
     name thorax
     direction 0.0185169 0.998203 0.0569866   
     length 2.0932   
     axis 0 0 0   XYZ
    dof rx ry rz
    limits (-20.0 45.0)
           (-30.0 30.0)
           (-30.0 30.0)
  end
  begin
     id 14 
     name lowerneck
     direction -0.0212406 0.982645 0.184277   
     length 1.72509   
     axis 0 0 0   XYZ
    dof rx ry rz
    limits (-20.0 45.0)
           (-30.0 30.0)
           (-30.0 30.0)
  end
  begin
     id 15 
     name upperneck
     direction 0.00528579 0.965323 -0.261004   
     length 1.76294   
     axis 0 0 0   XYZ
    dof rx ry rz
    limits (-20.0 45.0)
           (-30.0 30.0)
           (-30.0 30.0)
  end
  begin
     id 16
     name head
     direction 0.00695421 0.994078 -0.108445  
     length 1.78678  
     axis 0 0 0   XYZ
    dof rx ry rz
    limits (-20.0 45.0)
           (-30.0 30.0)
           (-30.0 30.0)
  end
  begin
     id 17 
     name lclavicle
     direction 0.97277 0.211305 -0.095232  
     length 3.84823  
     axis 0 0 0   XYZ
    dof ry rz
    limits (-20.0 10.0)
           (0.0 20.0)
  end
  begin
     id 18 
     name lhumerus
     direction 1 -4.48957e-011 -1.98313e-027   
     length 4.97185   
     axis 180 -30 -90   XYZ
    dof rx ry rz
    limits (-60.0 90.0)
           (-90.0 90.0)
           (-90.0 90.0)
  end
  begin
     id 19
     name lradius
     direction 1 -4.4898e-011 7.31063e-027   
     length 3.35811   
     axis 180 -30 -90   XYZ
    dof rx
    limits (-10.0 170.0)
  end
  begin
     id 20
     name lwrist
     direction 1 -4.48938e-011 9.95048e-027   
     length 1.67905   
     axis -8.75986e-015 90 90   XYZ
    dof ry
    limits (-180.0 0.0)
 end
  begin
     id 21 
     name lhand
     direction 1 -4.4901e-011 1.9901e-026   
     length 0.622776   
     axis -1.26985e-014 90 90   XYZ
    dof rx rz
    limits (-90.0 90.0)
           (-45.0 45.0)
  end
  begin
     id 22 
     name lfingers
     direction 1 -4.48961e-011 3.98019e-026   
     length 0.502098   
     axis -2.5397e-014 90 90   XYZ
    dof rx
    limits (0.0 90.0)
  end
  begin
     id 23
     name lthumb
     direction 0.707107 -6.34933e-011 0.707107   
     length 0.720915   
     axis -90 45 2.85299e-015   XYZ
    dof rx rz
    limits (-45.0 45.0)
           (-45.0 45.0)
  end
  begin
     id 24 
     name rclavicle
     direction -0.990867 0.133739 -0.0172226   
     length 3.78845  
     axis 0 0 0   XYZ 
    dof ry rz
    limits (-10.0 20.0)
           (-20.0 0.0)
  end
  begin
     id 25 
     name rhumerus
     direction -1 -4.48972e-011 -1.99267e-027  
     length 4.96493   
     axis 180 30 90   XYZ
    dof rx ry rz
    limits (-90.0 60.0)
           (-90.0 90.0)
           (-90.0 90.0)
  end
  begin
     id 26 
     name rradius
     direction -1 -4.48969e-011 8.96093e-027   
     length 3.34929   
     axis 180 30 90   XYZ
    dof rx
    limits (-10.0 170.0)
  end
  begin
     id 27 
     name rwrist
     direction -1 -4.48953e-011 9.95048e-027   
     length 1.67464   
     axis -8.75986e-015 -90 -90   XYZ
    dof ry
    limits (-180.0 0.0)
  end
  begin
     id 28
     name rhand
     direction -1 -4.49001e-011 1.9901e-026   
     length 0.638041   
     axis -1.26985e-014 -90 -90   XYZ
    dof rx rz
    limits (-90.0 90.0)
           (-45.0 45.0)
  end
  begin
     id 29
     name rfingers
     direction -1 -4.48967e-011 3.98019e-026   
     length 0.514405   
     axis -2.5397e-014 -90 -90   XYZ
    dof rx
    limits (0.0 90.0)
  end
  begin
     id 30
     name rthumb
     direction -0.707107 -6.34904e-011 0.707107   
     length 0.738586   
     axis -90 -45 -2.85299e-015   XYZ
    dof rx rz
    limits (-45.0 45.0)
           (-45.0 45.0)
  end
:hierarchy
  begin
    root lhipjoint rhipjoint lowerback
    lhipjoint lfemur
    lfemur ltibia
    ltibia lfoot
    lfoot ltoes
    rhipjoint rfemur
    rfemur rtibia
    rtibia rfoot
    rfoot rtoes
    lowerback upperback
    upperback thorax
    thorax lowerneck lclavicle rclavicle
    lowerneck upperneck
    upperneck head
    lclavicle lhumerus
    lhumerus lradius
    lradius lwrist
    lwrist lhand lthumb
    lhand lfingers
    rclavicle rhumerus
    rhumerus rradius
    rradius rwrist
    rwrist rhand rthumb
    rhand rfingers
  end

#!OML:ASF E:\Mandelcareful walks\Project 1\Capture day 1\Session 1\Subject1.ASF
:FULLY-SPECIFIED
:DEGREES
1
root -22.0596 16.618 0.524602 -41.1449 89.2676 -44.7298
lowerback -9.3475 -0.653854 -3.38326
upperback 2.25177 -0.543746 1.1445
thorax 7.68486 -0.451769 3.03207
lowerneck -22.6799 -4.62536 -8.46677
upperneck 27.1173 -4.8723 5.30835
head 13.2643 -2.19382 2.65097
rclavicle 5.13113e-015 -5.31749e-015
rhumerus -28.3203 -15.91 -81.4536
rradius 25.4029
rwrist -3.43466
rhand -8.02345 -31.4785
rfingers 7.12502
rthumb 17.8863 -60.676
lclavicle 5.13113e-015 -5.31749e-015
lhumerus -29.214 7.36648 89.602
lradius 26.7421
lwrist 1.13519
lhand -19.3443 -11.1511
lfingers 7.12502
lthumb 6.97283 18.714
rfemur -3.74095 5.47892 19.7934
rtibia 19.952
rfoot -32.5914 13.6619
rtoes 9.74445
lfemur -8.36688 -0.757198 -17.3533
ltibia 30.1042
lfoot -28.7547 20.7826
ltoes 8.40596
2
root -22.0707 16.6288 0.516868 -55.8208 89.5405 -59.6553
lowerback -9.35572 -0.725723 -3.35928
upperback 2.09714 -0.638378 1.06448
thorax 7.52955 -0.489655 2.91821
lowerneck -22.5867 -4.62126 -8.43025
upperneck 27.1322 -4.88873 5.315
head 13.2517 -2.19654 2.64575
rclavicle -4.09062e-015 -5.91384e-015
rhumerus -28.4096 -15.9162 -81.4688
rradius 25.4137
rwrist -3.51192
rhand -7.85756 -30.8127
rfingers 7.12502
rthumb 18.0459 -59.9955
lclavicle -4.09062e-015 -5.91384e-015
lhumerus -29.4408 7.25831 89.5602
lradius 26.9565
lwrist 1.13983
lhand -19.1579 -11.2446
lfingers 7.12502
lthumb 7.15276 18.6145
rfemur -4.03898 4.63246 19.5193
rtibia 19.9523
rfoot -32.7712 12.045
rtoes 4.28012
lfemur -8.59044 -1.09978 -17.5253
ltibia 29.8785
lfoot -28.6927 20.9553
ltoes 8.19621
3
root -22.0813 16.6428 0.509178 -101.384 89.7939 -105.447
lowerback -9.36128 -0.821823 -3.4437
upperback 1.99309 -0.752181 0.989677
thorax 7.43034 -0.543809 2.86856
lowerneck -22.4183 -4.82934 -9.06476
upperneck 26.9782 -5.10742 5.77092
head 13.2091 -2.2989 2.89104
rclavicle -7.93896e-015 -3.13086e-015
rhumerus -28.3927 -15.938 -81.4852
rradius 25.4055
rwrist -3.5633
rhand -7.90018 -30.5859
rfingers 7.12502
rthumb 18.0049 -59.7726
lclavicle -7.93896e-015 -3.13086e-015
lhumerus -29.4356 7.17297 89.56
lradius 26.963
lwrist 1.16123
lhand -19.2635 -10.9752
lfingers 7.12502
lthumb 7.05078 18.8874
rfemur -4.31433 4.25201 19.2268
rtibia 19.9872
rfoot -33.285 9.66564
rtoes -2.19493
lfemur -8.82191 -1.22351 -17.7601
ltibia 29.6525
lfoot -28.377 20.8779
ltoes 8.60632
4
root -22.0887 16.6489 0.502566 -14.2105 90.4153 -18.3822
lowerback -9.26594 -0.966608 -3.71417
upperback 1.89879 -0.912624 0.917614
thorax 7.29136 -0.628281 2.92056
lowerneck -22.2872 -4.87639 -9.31414
upperneck 26.9117 -5.14044 5.92465
head 13.1716 -2.32011 2.98759
rclavicle 1.58096e-015 -4.96962e-015
rhumerus -28.4182 -15.9163 -81.4504
rradius 25.3779
rwrist -3.5032
rhand -7.95544 -30.4596
rfingers 7.12502
rthumb 17.9517 -59.6511
lclavicle 1.58096e-015 -4.96962e-015
lhumerus -29.4586 7.28404 89.5524
lradius 26.9123
lwrist 1.04872
lhand -19.3511 -10.7333
lfingers 7.12502
lthumb 6.96628 19.1321
rfemur -4.41431 3.75491 18.8001
rtibia 19.9778
rfoot -33.6403 6.99656
rtoes -8.03841
lfemur -8.9077 -1.40453 -18.1496
ltibia 29.4016
lfoot -27.9496 20.856
ltoes 8.63706
5
root -22.1078 16.6608 0.496496 -14.0389 90.527 -18.557
lowerback -9.23652 -1.06427 -3.72765
upperback 1.67731 -1.04816 0.964626
thorax 7.05004 -0.687954 2.95782
lowerneck -22.3678 -4.7467 -9.1702
upperneck 27.1384 -4.95133 5.76964
head 13.2543 -2.24145 2.94165
rclavicle 7.34261e-015 -5.56597e-015
rhumerus -28.478 -15.6969 -81.4087
rradius 25.3658
rwrist -3.44469
rhand -7.87806 -30.2554
rfingers 7.12502
rthumb 18.0262 -59.44
lclavicle 7.34261e-015 -5.56597e-015
lhumerus -29.5902 7.55157 89.5246
lradius 26.9092
lwrist 0.924471
lhand -19.3141 -10.8234
lfingers 7.12502
lthumb 7.00196 19.0408
rfemur -4.90757 3.1846 18.6577
rtibia 20.0098
rfoot -33.8536 5.11871
rtoes -13.2155
lfemur -9.24648 -1.74831 -18.2358
ltibia 29.1685
lfoot -27.8313 21.0855
ltoes 8.25173
6
root -22.1298 16.6861 0.48125 -24.1001 91.0112 -29.2417
lowerback -9.43718 -1.25168 -3.84519
upperback 1.4084 -1.27299 0.878751
thorax 6.89735 -0.793017 2.89776
lowerneck -22.679 -4.51196 -8.64656
upperneck 27.5786 -4.68521 5.45582
head 13.4504 -2.10719 2.78603
rclavicle 2.55935e-015 -7.15625e-015
rhumerus -28.4529 -15.5279 -81.4349
rradius 25.3601
rwrist -3.46623
rhand -7.85635 -30.2663
rfingers 7.12502
rthumb 18.0471 -59.449
lclavicle 2.55935e-015 -7.15625e-015
lhumerus -26.2705 10.2443 88.7683
lradius 20.6813
lwrist -1.71243
lhand -20.1852 -13.5412
lfingers 7.12502
lthumb 6.16098 16.3492
rfemur -5.66607 1.79514 18.0911
rtibia 20.0071
rfoot -33.5561 2.84058
rtoes -17.7717
lfemur -9.95086 -2.2639 -18.6624
ltibia 28.9884
lfoot -27.7908 21.2318
ltoes 6.95065
7
root -22.1318 16.6874 0.482107 -28.6969 91.1295 -33.8417
lowerback -9.42475 -1.25766 -3.96784
upperback 1.40568 -1.26324 0.823586
thorax 6.88842 -0.791618 2.91044
lowerneck -22.6702 -4.53537 -8.36509
upperneck 27.6329 -4.70686 5.0836
head 13.4536 -2.13827 2.58673
rclavicle -7.87063e-015 1.0138e-014
rhumerus -28.4554 -15.5102 -81.4738
rradius 25.3893
rwrist -3.54311
rhand -7.88125 -30.3253
rfingers 7.12502
rthumb 18.0231 -59.5102
lclavicle -7.87063e-015 1.0138e-014
lhumerus -28.7953 7.87545 89.4218
lradius 25.4245
lwrist 0.604516
lhand -19.6915 -11.1448
lfingers 7.12502
lthumb 6.63764 18.7312
rfemur -5.64639 1.79657 17.9487
rtibia 19.9882
rfoot -33.7033 -0.778591
rtoes -21.0282
lfemur -9.91518 -2.28838 -18.7989
ltibia 28.8719
lfoot -27.8041 21.1887
ltoes 7.0532
8
root -22.1318 16.6833 0.4815 -30.6226 91.1169 -35.749
lowerback -9.35975 -1.22336 -3.97513
upperback 1.35823 -1.21826 0.800685
thorax 6.7966 -0.766729 2.89846
lowerneck -22.5682 -4.54241 -8.24967
upperneck 27.6273 -4.7254 4.95175
head 13.4242 -2.15298 2.51204
rclavicle -1.06474e-014 -3.67752e-015
rhumerus -28.602 -15.4579 -81.4651
rradius 25.4719
rwrist -3.66143
rhand -7.88564 -30.2988
rfingers 7.12502
rthumb 18.0189 -59.4841
lclavicle -1.06474e-014 -3.67752e-015
lhumerus -29.7764 7.25521 89.5772
lradius 27.0151
lwrist 1.13281
lhand -19.5535 -10.2515
lfingers 7.12502
lthumb 6.77085 19.6202
rfemur -5.68013 1.76359 17.9157
rtibia 20.0739
rfoot -33.6635 -3.94796
rtoes -23.5191
lfemur -9.83761 -2.21164 -18.8287
ltibia 28.73
lfoot -27.6782 21.1948
ltoes 8.6748
9
root -22.1315 16.6835 0.4797 -32.7713 91.1367 -37.8726
lowerback -9.25798 -1.22704 -4.01839
upperback 1.28421 -1.22271 0.792849
thorax 6.66098 -0.766422 2.91567
lowerneck -22.476 -4.51102 -8.17233
upperneck 27.688 -4.68377 4.8552
head 13.4218 -2.14 2.47051
rclavicle -1.73315e-014 -3.72721e-015
rhumerus -28.7736 -15.3409 -81.4701
rradius 25.5308
rwrist -3.69925
rhand -7.96607 -30.4464
rfingers 7.12502
rthumb 17.9415 -59.6389
lclavicle -1.73315e-014 -3.72721e-015
lhumerus -29.9519 7.25749 89.5612
lradius 27.0565
lwrist 1.15075
lhand -19.5081 -10.2046
lfingers 7.12502
lthumb 6.81471 19.6657
rfemur -5.70954 1.67589 17.8475
rtibia 20.1851
rfoot -33.7895 -6.65229
rtoes -25.8654
lfemur -9.77927 -2.18845 -18.889
ltibia 28.6619
lfoot -27.5764 21.2271
ltoes 9.13402
10
root -22.1327 16.6877 0.476945 -38.6105 91.3211 -43.7052
lowerback -9.2055 -1.24817 -4.19273
upperback 1.24568 -1.22809 0.711665
thorax 6.59305 -0.771764 2.92854
lowerneck -22.0414 -4.70973 -7.92344
upperneck 27.4042 -4.99945 4.55184
head 13.2222 -2.29875 2.24911
rclavicle 9.01364e-015 3.8266e-015
rhumerus -28.8277 -15.3703 -81.4975
rradius 25.5191
rwrist -3.65775
rhand -8.02811 -30.4475
rfingers 7.12502
rthumb 17.8818 -59.6454
lclavicle 9.01364e-015 3.8266e-015
lhumerus -29.1335 7.49212 89.4534
lradius 25.4592
lwrist 0.886908
lhand -19.6364 -11.0233
lfingers 7.12502
lthumb 6.69078 18.851
rfemur -5.71819 1.3851 17.5767
rtibia 20.2298
rfoot -33.9134 -9.0745
rtoes -27.8725
lfemur -9.7541 -2.22412 -19.1374
ltibia 28.6385
lfoot -27.5581 21.2073
ltoes 9.0481
11
root -22.134 16.6865 0.475056 -41.5693 91.4239 -46.6671
lowerback -9.1964 -1.26947 -4.32023
upperback 1.23012 -1.24088 0.688355
thorax 6.57519 -0.781583 2.97424
lowerneck -22.4505 -4.41489 -7.98472
upperneck 27.7812 -4.59463 4.78783
head 13.4401 -2.08922 2.43104
rclavicle -8.16881e-016 7.50412e-015
rhumerus -28.8204 -15.3733 -81.4899
rradius 25.4992
rwrist -3.61516
rhand -8.02792 -30.348
rfingers 7.12502
rthumb 17.882 -59.5459
lclavicle -8.16881e-016 7.50412e-015
lhumerus -26.535 8.82714 89.0791
lradius 20.6131
lwrist -0.46122
lhand -20.3191 -13.286
lfingers 7.12502
lthumb 6.03178 16.6081
rfemur -5.72481 1.09468 17.4169
rtibia 20.2071
rfoot -33.8979 -11.4734
rtoes -29.3787
lfemur -9.7803 -2.10494 -19.2743
ltibia 28.6602
lfoot -27.469 21.1327
ltoes 8.82155
12
root -22.1347 16.684 0.474478 -38.0566 91.311 -43.1834
lowerback -9.26249 -1.2813 -4.18412
upperback 1.22242 -1.27338 0.748822
thorax 6.60538 -0.794203 2.95547
lowerneck -22.4599 -4.35764 -8.01398
upperneck 27.8578 -4.51633 4.8413
head 13.4702 -2.04999 2.47352
rclavicle 8.85834e-015 7.55382e-015
rhumerus -28.7876 -15.2561 -81.5065
rradius 25.4993
rwrist -3.60765
rhand -8.00453 -30.3901
rfingers 7.12502
rthumb 17.9045 -59.5859
lclavicle 8.85834e-015 7.55382e-015
lhumerus -26.6452 8.60762 89.1734
lradius 20.8062
lwrist -0.163423
lhand -20.3332 -13.257
lfingers 7.12502
lthumb 6.01814 16.6376
rfemur -5.75818 1.06184 17.5622
rtibia 20.1751
rfoot -33.9308 -13.8993
rtoes -30.5305
lfemur -9.84669 -1.99166 -19.1191
ltibia 28.6986
lfoot -27.376 21.107
ltoes 8.75967
13
root -22.137 16.6851 0.474968 -23.2751 91.1531 -28.4842
lowerback -9.36728 -1.29652 -3.83785
upperback 1.20363 -1.33629 0.851927
thorax 6.64365 -0.81464 2.85786
lowerneck -22.3965 -4.28949 -7.88948
upperneck 27.8436 -4.42077 4.694
head 13.4355 -2.01598 2.41174
rclavicle -1.90895e-014 1.68967e-015
rhumerus -28.7465 -15.117 -81.5697
rradius 25.509
rwrist -3.67524
rhand -8.00287 -30.4239
rfingers 7.12502
rthumb 17.9061 -59.6196
lclavicle -1.90895e-014 1.68967e-015
lhumerus -26.6388 8.58662 89.1692
lradius 20.801
lwrist -0.124297
lhand -20.3076 -13.3167
lfingers 7.12502
lthumb 6.04282 16.5771
rfemur -5.80364 1.19115 17.9645
rtibia 20.0824
rfoot -34.0742 -16.412
rtoes -31.3569
lfemur -10.0094 -2.00263 -18.7149
ltibia 28.7873
lfoot -27.3902 21.0794
ltoes 8.72533
14
root -22.1406 16.6846 0.476288 -21.3557 91.2295 -26.5369
lowerback -9.31429 -1.31336 -3.8416
upperback 1.22092 -1.35908 0.831687
thorax 6.63321 -0.825714 2.83573
lowerneck -22.4281 -4.19495 -7.88042
upperneck 27.8833 -4.3348 4.8497
head 13.4553 -1.95469 2.48913
rclavicle -2.38386e-014 6.90777e-015
rhumerus -28.7282 -15.1584 -81.6197
rradius 25.5296
rwrist -3.66034
rhand -7.99942 -30.5148
rfingers 7.12502
rthumb 17.9094 -59.7101
lclavicle -2.38386e-014 6.90777e-015
lhumerus -26.5306 8.63378 89.1
lradius 20.6569
lwrist -0.285748
lhand -20.2108 -13.4178
lfingers 7.12502
lthumb 6.13629 16.4733
rfemur -5.70586 1.34519 17.9936
rtibia 19.9826
rfoot -34.1976 -18.9304
rtoes -31.8813
lfemur -10.0643 -1.89654 -18.6846
ltibia 28.868
lfoot -27.3039 20.9646
ltoes 8.31735
15
root -22.1462 16.6849 0.478053 -20.4362 91.2023 -25.6157
lowerback -9.24631 -1.2816 -3.83011
upperback 1.23046 -1.32077 0.831721
thorax 6.60117 -0.806148 2.83598
lowerneck -22.4583 -4.12191 -7.9337
upperneck 27.8703 -4.26476 5.03036
head 13.4564 -1.9041 2.58298
rclavicle 7.3395e-015 -8.64713e-015
rhumerus -28.704 -15.2327 -81.6295
rradius 25.5595
rwrist -3.63763
rhand -7.941 -30.653
rfingers 7.12502
rthumb 17.9656 -59.8432
lclavicle 7.3395e-015 -8.64713e-015
lhumerus -26.3669 8.7029 89.0673
lradius 20.4723
lwrist -0.477301
lhand -20.0448 -13.5445
lfingers 7.12502
lthumb 6.29653 16.3419
rfemur -5.67227 1.64756 18.0567
rtibia 19.8978
rfoot -34.1695 -21.4833
rtoes -32.0418
lfemur -10.1244 -1.72269 -18.6222
ltibia 28.925
lfoot -27.2179 20.7689
ltoes 8.0141
